<svg width="25" height="24" viewBox="0 0 25 24" fill="none" xmlns="http://www.w3.org/2000/svg">
<g id="dashboard-2_svgrepo.com">
<path id="Vector" d="M12.75 12C12.75 11.4477 13.1977 11 13.75 11H19.75C20.3023 11 20.75 11.4477 20.75 12V19C20.75 19.5523 20.3023 20 19.75 20H13.75C13.1977 20 12.75 19.5523 12.75 19V12Z" stroke="#B9B9B9" stroke-width="2" stroke-linecap="round"/>
<path id="Vector_2" d="M4.75 5C4.75 4.44772 5.19772 4 5.75 4H8.75C9.30228 4 9.75 4.44772 9.75 5V19C9.75 19.5523 9.30228 20 8.75 20H5.75C5.19772 20 4.75 19.5523 4.75 19V5Z" stroke="#B9B9B9" stroke-width="2" stroke-linecap="round"/>
<path id="Vector_3" d="M12.75 5C12.75 4.44772 13.1977 4 13.75 4H19.75C20.3023 4 20.75 4.44772 20.75 5V7C20.75 7.55228 20.3023 8 19.75 8H13.75C13.1977 8 12.75 7.55228 12.75 7V5Z" stroke="#B9B9B9" stroke-width="2" stroke-linecap="round"/>
</g>
</svg>
