<svg width="25" height="25" viewBox="0 0 25 25" fill="none" xmlns="http://www.w3.org/2000/svg">
<path id="Vector" fill-rule="evenodd" clip-rule="evenodd" d="M23.6983 1.08901C22.2463 -0.362998 19.8922 -0.36301 18.4402 1.08901L16.3583 3.17091L6.55983 12.9693C6.40099 13.1282 6.28832 13.3272 6.23384 13.5451L4.99447 18.5026C4.88888 18.925 5.01263 19.3718 5.32046 19.6795C5.6283 19.9874 6.07508 20.1112 6.49743 20.0056L11.4548 18.7662C11.6728 18.7117 11.8718 18.599 12.0307 18.4401L21.7578 8.71302L23.911 6.55985C25.363 5.10784 25.363 2.75366 23.911 1.30165L23.6983 1.08901ZM20.1929 2.84174C20.6768 2.35774 21.4616 2.35774 21.9456 2.84174L22.1583 3.05438C22.6422 3.53839 22.6422 4.32312 22.1583 4.80712L20.8984 6.06697L18.9707 4.06391L20.1929 2.84174ZM17.2176 5.81696L19.1454 7.82002L10.5207 16.4447L7.90018 17.0999L8.55529 14.4794L17.2176 5.81696ZM2.47873 7.64886C2.47873 6.96438 3.03362 6.40949 3.7181 6.40949H9.91493C10.5994 6.40949 11.1543 5.85461 11.1543 5.17012C11.1543 4.48564 10.5994 3.93075 9.91493 3.93075H3.7181C1.66465 3.93075 0 5.59541 0 7.64886V21.2819C0 23.3354 1.66465 25 3.7181 25H17.3511C19.4046 25 21.0692 23.3354 21.0692 21.2819V15.085C21.0692 14.4007 20.5144 13.8457 19.8299 13.8457C19.1454 13.8457 18.5905 14.4007 18.5905 15.085V21.2819C18.5905 21.9664 18.0356 22.5213 17.3511 22.5213H3.7181C3.03362 22.5213 2.47873 21.9664 2.47873 21.2819V7.64886Z" fill="#333333"/>
</svg>
