<svg xmlns="http://www.w3.org/2000/svg" width="88" height="88" fill="none" viewBox="0 0 88 88">
  <rect width="88" height="87.684" fill="#42A5F5" rx="43.842"/>
  <g clip-path="url(#a)">
    <path fill="#fff" fill-rule="evenodd" d="M19 52.389a1.9 1.9 0 0 1 1.9-1.9c3.036 0 4.618 1.419 5.888 2.558 1.064.955 1.769 1.586 3.351 1.586s2.286-.63 3.35-1.586c1.272-1.14 2.852-2.557 5.888-2.557 3.038 0 4.618 1.417 5.888 2.557 1.065.955 1.769 1.586 3.352 1.586 1.584 0 2.287-.63 3.351-1.586 1.271-1.14 2.851-2.557 5.89-2.557 3.036 0 4.617 1.417 5.888 2.557 1.065.955 1.77 1.586 3.352 1.586a1.9 1.9 0 0 1 0 3.8c-3.038 0-4.618-1.419-5.888-2.558-1.066-.955-1.77-1.587-3.353-1.587-1.583 0-2.287.632-3.352 1.587-1.27 1.14-2.851 2.557-5.888 2.557s-4.618-1.418-5.888-2.557c-1.065-.955-1.77-1.587-3.352-1.587-1.583 0-2.286.632-3.351 1.587-1.271 1.14-2.851 2.557-5.888 2.557s-4.618-1.418-5.889-2.557c-1.065-.955-1.768-1.587-3.35-1.587A1.9 1.9 0 0 1 19 52.39Zm7.788-1.414c1.064.956 1.769 1.587 3.351 1.587s2.286-.631 3.35-1.587c1.272-1.139 2.852-2.557 5.888-2.557 3.038 0 4.618 1.419 5.888 2.557 1.065.956 1.769 1.587 3.352 1.587 1.584 0 2.287-.631 3.351-1.587 1.271-1.139 2.851-2.557 5.89-2.557.293 0 .57.017.838.042L48.23 30.862l10.514-2.38a3.28 3.28 0 1 0-1.449-6.4l-14.783 3.347a3.279 3.279 0 0 0-2.143 4.793l3.917 7.051-20.62 11.62c1.366.511 2.31 1.353 3.122 2.082Zm28.726-13.184a5.924 5.924 0 1 0 11.849 0 5.924 5.924 0 0 0-11.849 0ZM67.1 61.886c-1.583 0-2.287-.631-3.352-1.587-1.27-1.139-2.852-2.557-5.889-2.557-3.038 0-4.617 1.418-5.889 2.557-1.065.956-1.767 1.587-3.351 1.587-1.583 0-2.287-.631-3.352-1.587-1.27-1.139-2.85-2.557-5.888-2.557-3.036 0-4.617 1.418-5.887 2.557-1.065.956-1.77 1.587-3.35 1.587-1.584 0-2.288-.631-3.352-1.587-1.27-1.139-2.852-2.557-5.888-2.557a1.899 1.899 0 1 0 0 3.799c1.583 0 2.286.631 3.35 1.586 1.272 1.14 2.852 2.557 5.89 2.557 3.036 0 4.617-1.417 5.888-2.557 1.064-.955 1.767-1.586 3.35-1.586 1.583 0 2.287.631 3.352 1.586 1.27 1.14 2.852 2.557 5.888 2.557 3.038 0 4.618-1.417 5.889-2.556 1.065-.956 1.769-1.587 3.352-1.587 1.582 0 2.287.631 3.353 1.586 1.27 1.14 2.85 2.557 5.888 2.557a1.9 1.9 0 1 0-.002-3.798Z" clip-rule="evenodd"/>
  </g>
  <defs>
    <clipPath id="a">
      <path fill="#fff" d="M0 0h50v43.684H0z" transform="translate(19 22)"/>
    </clipPath>
  </defs>
</svg>
