<svg width="25" height="24" viewBox="0 0 25 24" fill="none" xmlns="http://www.w3.org/2000/svg">
<g id="scan-qrcode_svgrepo.com" clip-path="url(#clip0_83_587)">
<path id="Vector" d="M4.25 4H10.25V10H4.25V4ZM20.25 4V10H14.25V4H20.25ZM14.25 15H16.25V13H14.25V11H16.25V13H18.25V11H20.25V13H18.25V15H20.25V18H18.25V20H16.25V18H13.25V20H11.25V16H14.25V15ZM16.25 15V18H18.25V15H16.25ZM4.25 20V14H10.25V20H4.25ZM6.25 6V8H8.25V6H6.25ZM16.25 6V8H18.25V6H16.25ZM6.25 16V18H8.25V16H6.25ZM4.25 11H6.25V13H4.25V11ZM9.25 11H13.25V15H11.25V13H9.25V11ZM11.25 6H13.25V10H11.25V6ZM2.25 2V6H0.25V2C0.25 1.46957 0.460714 0.960859 0.835786 0.585786C1.21086 0.210714 1.71957 0 2.25 0L6.25 0V2H2.25ZM22.25 0C22.7804 0 23.2891 0.210714 23.6642 0.585786C24.0393 0.960859 24.25 1.46957 24.25 2V6H22.25V2H18.25V0H22.25ZM2.25 18V22H6.25V24H2.25C1.71957 24 1.21086 23.7893 0.835786 23.4142C0.460714 23.0391 0.25 22.5304 0.25 22V18H2.25ZM22.25 22V18H24.25V22C24.25 22.5304 24.0393 23.0391 23.6642 23.4142C23.2891 23.7893 22.7804 24 22.25 24H18.25V22H22.25Z" fill="#F4F4F4"/>
</g>
<defs>
<clipPath id="clip0_83_587">
<rect width="24" height="24" fill="white" transform="translate(0.25)"/>
</clipPath>
</defs>
</svg>
