<svg width="21" height="26" viewBox="0 0 21 26" fill="none" xmlns="http://www.w3.org/2000/svg">
<path id="Vector" d="M8.02795 23.0001H12.4724C12.4724 23.5894 12.2383 24.1547 11.8215 24.5714C11.4048 24.9882 10.8396 25.2223 10.2502 25.2223C9.66081 25.2223 9.09558 24.9882 8.67883 24.5714C8.26208 24.1547 8.02795 23.5894 8.02795 23.0001ZM0.334574 20.0923C0.250457 19.8892 0.228467 19.6657 0.271386 19.4501C0.314305 19.2345 0.420204 19.0365 0.575686 18.8811L2.47236 16.9845V10.7778C2.47594 8.90942 3.15136 7.10468 4.37531 5.69306C5.59925 4.28144 7.29008 3.35711 9.13907 3.08883V1.88883C9.13907 1.59414 9.25613 1.31152 9.46451 1.10315C9.67288 0.894774 9.9555 0.77771 10.2502 0.77771C10.5449 0.77771 10.8275 0.894774 11.0359 1.10315C11.2442 1.31152 11.3613 1.59414 11.3613 1.88883V3.08883C13.2103 3.35711 14.9011 4.28144 16.1251 5.69306C17.349 7.10468 18.0244 8.90942 18.028 10.7778V16.9845L19.9247 18.8811C20.08 19.0365 20.1858 19.2345 20.2287 19.45C20.2715 19.6655 20.2495 19.8889 20.1654 20.0919C20.0814 20.2949 19.939 20.4684 19.7563 20.5905C19.5736 20.7126 19.3588 20.7778 19.1391 20.7778H1.36125C1.1415 20.7779 0.926681 20.7128 0.743937 20.5907C0.561193 20.4687 0.418734 20.2952 0.334574 20.0923ZM4.04348 18.5556H16.4569L16.1313 18.23C15.9229 18.0217 15.8058 17.7391 15.8058 17.4445V10.7778C15.8058 9.30433 15.2205 7.89125 14.1786 6.84937C13.1367 5.8075 11.7236 5.22218 10.2502 5.22218C8.77675 5.22218 7.36367 5.8075 6.32179 6.84937C5.27992 7.89125 4.6946 9.30433 4.6946 10.7778V17.4445C4.69453 17.7391 4.57743 18.0217 4.36904 18.23L4.04348 18.5556Z" fill="#B9B9B9"/>
</svg>
