<svg xmlns="http://www.w3.org/2000/svg" width="390" height="377" fill="none" viewBox="0 0 390 377">
  <path fill="#42A5F5" d="M141.952 289h5.736c4.864-.096 9.352-.408 13.544-.888v-91.376h-19.28V289Zm35.664-4a95.264 95.264 0 0 0 19.272-7.504v-80.8h-19.272V285Zm35.656-17.424c6.4-4.136 12.304-7.736 19.28-9.536v-61.304h-19.28v70.84Zm35.664-10.392c6.896.8 13.184 2.632 19.28 4.608v-65.056h-19.28v60.448ZM50.6 225.864a139.322 139.322 0 0 0 3.64 8.992v-38.12H44.056a121.35 121.35 0 0 0 6.544 29.128Zm20.024 34.968a77.41 77.41 0 0 0 19.28 15.672v-79.768h-19.28v64.096Zm35.664 22.848a108.063 108.063 0 0 0 19.28 4.2v-91.144h-19.28v86.944ZM284.6 266.736a49.353 49.353 0 0 0 19.28.928v-70.928H284.6v70Zm46.816-177.232a155.92 155.92 0 0 0-19.896-30.512C278.76 20.2 212.6 32.296 187.128 52.32c-25.472 20.024-26.696 47.936-48.544 55.2-21.848 7.264-38.832-6.672-67.96 10.928-19.712 11.912-28 40.224-27.2 68.568h306.688c.152-2.312.28-4.576.368-6.768a184.253 184.253 0 0 0-19.064-90.744ZM72.272 148.456l-3.672-1.928-3.672 1.928.704-4.088-2.976-2.896 4.104-.6 1.84-3.72 1.84 3.72 4.104.6-2.976 2.896.704 4.088Zm83.832 8.072-5.296 6.872-2.208-8.4-8.136-2.92 7.272-4.688.264-8.64 6.696 5.464L163 141.8l-3.128 8.064 4.864 7.144-8.632-.48Zm40.96-53.352-.688 4.992-3.544-3.584-4.96.88L190.2 101l-2.4-4.448 4.976.8 3.496-3.632.8 4.976 4.528 2.208-4.536 2.272Zm18.736 76.952-4-2.112-4 2.112.8-4.472-3.256-3.2 4.496-.656 2.008-4.064 2.008 4.064 4.496.656-3.256 3.2.704 4.472Zm55.704-131.432-2.104-1.104-2.104 1.104.4-2.344L266 44.696l2.352-.344 1.048-2.128 1.048 2.128 2.352.344-1.696 1.656.4 2.344Zm62.4 110.824-5.304-2.792-5.32 2.792 1.016-5.92-4.304-4.2 5.944-.864 2.664-5.384 2.664 5.384 5.944.864-4.304 4.2 1 5.92Zm-13.64 102.472a66.02 66.02 0 0 0 2.792-1.544c7.16-4.168 12.504-11.664 16.488-20.872v-42.84h-19.28v65.256Z"/>
  <path fill="#fff" d="M141.952 289h5.736c4.864-.096 9.352-.408 13.544-.888v-91.376h-19.28V289Zm35.664-4a95.264 95.264 0 0 0 19.272-7.504v-80.8h-19.272V285Zm35.656-17.424c6.4-4.136 12.304-7.736 19.28-9.536v-61.304h-19.28v70.84Zm35.664-10.392c6.896.8 13.184 2.632 19.28 4.608v-65.056h-19.28v60.448ZM50.6 225.864a139.322 139.322 0 0 0 3.64 8.992v-38.12H44.056a121.35 121.35 0 0 0 6.544 29.128Zm20.024 34.968a77.41 77.41 0 0 0 19.28 15.672v-79.768h-19.28v64.096Zm35.664 22.848a108.063 108.063 0 0 0 19.28 4.2v-91.144h-19.28v86.944ZM284.6 266.736a49.353 49.353 0 0 0 19.28.928v-70.928H284.6v70Zm46.816-177.232a155.92 155.92 0 0 0-19.896-30.512C278.76 20.2 212.6 32.296 187.128 52.32c-25.472 20.024-26.696 47.936-48.544 55.2-21.848 7.264-38.832-6.672-67.96 10.928-19.712 11.912-28 40.224-27.2 68.568h306.688c.152-2.312.28-4.576.368-6.768a184.253 184.253 0 0 0-19.064-90.744ZM72.272 148.456l-3.672-1.928-3.672 1.928.704-4.088-2.976-2.896 4.104-.6 1.84-3.72 1.84 3.72 4.104.6-2.976 2.896.704 4.088Zm83.832 8.072-5.296 6.872-2.208-8.4-8.136-2.92 7.272-4.688.264-8.64 6.696 5.464L163 141.8l-3.128 8.064 4.864 7.144-8.632-.48Zm40.96-53.352-.688 4.992-3.544-3.584-4.96.88L190.2 101l-2.4-4.448 4.976.8 3.496-3.632.8 4.976 4.528 2.208-4.536 2.272Zm18.736 76.952-4-2.112-4 2.112.8-4.472-3.256-3.2 4.496-.656 2.008-4.064 2.008 4.064 4.496.656-3.256 3.2.704 4.472Zm55.704-131.432-2.104-1.104-2.104 1.104.4-2.344L266 44.696l2.352-.344 1.048-2.128 1.048 2.128 2.352.344-1.696 1.656.4 2.344Zm62.4 110.824-5.304-2.792-5.32 2.792 1.016-5.92-4.304-4.2 5.944-.864 2.664-5.384 2.664 5.384 5.944.864-4.304 4.2 1 5.92Zm-13.64 102.472a66.02 66.02 0 0 0 2.792-1.544c7.16-4.168 12.504-11.664 16.488-20.872v-42.84h-19.28v65.256Z" opacity=".7"/>
  <path fill="#42A5F5" d="M263.28 319.912c24.296 0 43.992-2.987 43.992-6.672 0-3.685-19.696-6.672-43.992-6.672-24.296 0-43.992 2.987-43.992 6.672 0 3.685 19.696 6.672 43.992 6.672Z"/>
  <path fill="#fff" d="M263.28 319.912c24.296 0 43.992-2.987 43.992-6.672 0-3.685-19.696-6.672-43.992-6.672-24.296 0-43.992 2.987-43.992 6.672 0 3.685 19.696 6.672 43.992 6.672Z" opacity=".5"/>
  <path fill="#42A5F5" d="M129.184 310.208c18.265 0 33.072-2.987 33.072-6.672 0-3.685-14.807-6.672-33.072-6.672s-33.072 2.987-33.072 6.672c0 3.685 14.807 6.672 33.072 6.672Z"/>
  <path fill="#fff" d="M129.184 310.208c18.265 0 33.072-2.987 33.072-6.672 0-3.685-14.807-6.672-33.072-6.672s-33.072 2.987-33.072 6.672c0 3.685 14.807 6.672 33.072 6.672Z" opacity=".5"/>
  <path fill="#333" d="m113.104 286.208 16.84-7.008c-1.176-1.928-2.352-1.016-3.856-4.136-.8-1.6-.096-4.176-1.104-6.24-.8-1.688-3.288-2.76-4.248-4.696-.872-1.744-.24-4.344-1.184-6.224s-3.368-2.808-4.312-4.64c-.944-1.832-.328-4.408-1.28-6.208-.952-1.8-3.44-2.792-4.392-4.568-.952-1.776-.448-4.44-1.424-6.176-.976-1.736-3.544-2.744-4.528-4.416-1.104-1.872-.696-4.52-1.712-6.112-1.24-1.936-3.824-2.64-4.872-4-1.968-2.56-3.024-5.376-4-5.184-.976.192-.128 3.024.408 6.4.272 1.68-.992 4-.432 6.248.448 1.808 2.656 3.312 3.264 5.376.536 1.848-.536 4.288.096 6.28s2.856 3.264 3.504 5.208c.648 1.944-.368 4.368.288 6.28.656 1.912 2.96 3.248 3.624 5.128.664 1.88-.272 4.416.4 6.272.672 1.856 3.032 3.264 3.696 5.08.744 2.008-.176 4.504.48 6.256.8 2.128 3.144 3.424 3.76 5.032 1.336 3.512-.544 3.448.56 6.264l.424-.216Z"/>
  <path stroke="#fff" stroke-miterlimit="10" stroke-width=".361" d="m94.968 222.272 25.04 60.152m-19.784-54.936-1.76 3.504-3.488-2.056m9.6 9.016-1.752 3.512-3.488-2.056m9.344 8.392-1.752 3.512-3.496-2.056m10.128 10.256-1.76 3.512-3.488-2.056m10.176 10.384-1.752 3.512-3.488-2.056"/>
  <path fill="#333" d="m111.2 281.56 27.472-.872c-.632-3.344-2.768-2.688-3.2-7.88-.224-2.624 2.096-5.944 1.776-9.384-.264-2.832-3.152-5.648-3.472-8.888-.288-2.92 1.992-6.248 1.664-9.4-.32-2.976-3.248-5.752-3.592-8.84-.344-3.088 1.888-6.4 1.52-9.432-.368-3.032-3.352-5.768-3.752-8.8-.4-3.032 1.744-6.496 1.296-9.456-.464-3.136-3.52-5.768-4-8.656-.552-3.2 1.44-6.736.856-9.504-.712-3.4-4-5.776-4.72-8.272-1.392-4.656-1.384-9.192-2.864-9.44-1.48-.248-1.8 4.184-2.832 9.184-.52 2.512-3.552 5.136-3.952 8.576-.328 2.784 1.976 6.08 1.72 9.304-.232 2.896-3.04 5.76-3.2 8.896-.168 2.96 2.288 6.136 2.152 9.224-.136 3.088-2.848 5.944-2.944 8.992-.096 3.048 2.4 6.152 2.36 9.16-.04 3.008-2.744 6.08-2.792 9.048-.048 3.136 2.528 6.216 2.496 9.128 0 3.2-2.656 6.256-2.664 9.08 0 3.416 2.592 6.488 2.6 9.096 0 5.648-2.608 4.56-2.56 9.112l.632.024Z"/>
  <path stroke="#fff" stroke-miterlimit="10" stroke-width=".544" d="m119.832 181.808 3.128 98.112m1.488-87.96-4.352 4-3.816-4.76m8.712 17.832-4.352 4.008-3.816-4.76m8.68 16.816-4.352 4-3.816-4.76m8.776 19.864-4.352 4.008-3.808-4.76m8.776 20.064-4.352 4.008-3.816-4.76"/>
  <path fill="#333" d="M127.744 219.848c1.408.968 5.2 1.6 5.208 1.6.008 0-.336-2.624-.376-2.792-.496-1.896-2.56-5.264-4.744-5.384a2.597 2.597 0 0 0-1.955.801 2.6 2.6 0 0 0-.709 1.991c.064 1.56 1.368 2.952 2.576 3.784Zm38.024 8.232s1.176-2.4 1.232-2.536c.632-1.848.8-5.8-.984-7.112a2.604 2.604 0 0 0-3.052.049c-.29.219-.532.497-.708.815-.8 1.328-.48 3.2.064 4.56.68 1.592 3.448 4.224 3.448 4.224Z"/>
  <path fill="#333" d="M179.696 216.584c-2.096-.64-5.208 1.792-6.328 3.4-.096.136-1.368 2.48-1.328 2.488h.048c-.496.376-1.016.8-1.6 1.256-1.032.864-2.2 1.856-3.392 3.016a46.752 46.752 0 0 0-3.672 3.92 34 34 0 0 0-3.44 4.928v.064c.136-.624.448-2.4.456-2.528.12-1.952-.8-5.8-2.832-6.6a2.595 2.595 0 0 0-2.941.854 2.588 2.588 0 0 0-.467.978c-.416 1.488.392 3.2 1.272 4.376 1 1.312 4.144 3.008 4.4 3.144a46.528 46.528 0 0 0-2.552 5.6c-.424 1.112-.8 2.24-1.208 3.384.096-.544.184-1.04.184-1.104.12-1.952-.8-5.8-2.824-6.6a2.596 2.596 0 0 0-2.107.153 2.586 2.586 0 0 0-1.293 1.671c-.424 1.488.384 3.2 1.264 4.376.88 1.176 3.552 2.68 4.264 3.064l-.432 1.32c-.68 2.104-1.344 4.216-2.056 6.264-.256.72-.528 1.424-.8 2.12.08-.48.152-.896.16-.952.12-1.96-.8-5.8-2.832-6.6a2.591 2.591 0 0 0-2.933.849 2.575 2.575 0 0 0-.467.975c-.416 1.488.384 3.2 1.272 4.376.888 1.176 3.296 2.536 4.128 3-.296.704-.6 1.424-.92 2.096-.232.456-.424.912-.68 1.36-.256.448-.488.888-.728 1.32-.496.8-1.008 1.68-1.512 2.48-.344.552-.68 1.072-1.024 1.6.256-.72.736-2.128.8-2.248a10.065 10.065 0 0 0-.4-5.064c.046-.189.073-.382.08-.576a2.596 2.596 0 0 0-1.631-2.58 2.6 2.6 0 0 0-1.065-.18c-2.184.152-4.216 3.544-4.68 5.44 0 .112-.192 1.36-.288 2.152 0-.472 0-.928-.048-1.416 0-.96-.112-1.92-.176-2.952-.056-.496-.104-1-.16-1.504-.056-.504-.144-1.032-.216-1.552a51.263 51.263 0 0 0-.736-3.632c.848 0 3.832-.208 5.144-.864 1.312-.656 2.792-1.848 3.08-3.368a2.586 2.586 0 0 0-.424-2.07 2.605 2.605 0 0 0-1.824-1.066c-2.184-.184-4.696 2.864-5.448 4.664-.048.12-.44 1.472-.648 2.224-.176-.728-.344-1.456-.544-2.192-.584-2.104-1.24-4.224-1.888-6.344l-.576-1.944c.296 0 3.856-.136 5.328-.872 1.304-.648 2.792-1.848 3.072-3.368a2.582 2.582 0 0 0-2.24-3.136c-2.184-.184-4.704 2.864-5.456 4.672a59.94 59.94 0 0 0-.744 2.592 148.44 148.44 0 0 1-1.168-4.28 45.045 45.045 0 0 1-1.048-5.832c.136 0 3.848-.12 5.36-.872 1.304-.648 2.792-1.848 3.072-3.368a2.582 2.582 0 0 0-2.24-3.136c-2.184-.184-4.704 2.864-5.456 4.664-.048.12-.48 1.6-.672 2.32h-.12a33.704 33.704 0 0 1 0-5.96c.088-1.088.232-2.128.392-3.136.696.048 3.872.24 5.304-.288 1.432-.528 2.976-1.528 3.424-3.008a2.589 2.589 0 0 0-1.888-3.368c-2.152-.424-4.984 2.328-5.928 4.04-.056.096-.472 1.096-.8 1.832.08-.448.152-.92.24-1.352a61.292 61.292 0 0 1 1.68-6.408c.704-.312 3.536-1.6 4.544-2.688 1.008-1.088 1.936-2.728 1.656-4.256a2.59 2.59 0 0 0-3.2-2.112c-2.096.616-3.344 4.36-3.4 6.32 0 .168.232 2.816.272 2.8-.2.592-.416 1.224-.624 1.928a61.24 61.24 0 0 0-1.168 4.384 45.386 45.386 0 0 0-.896 5.296 33.044 33.044 0 0 0-.152 6.008.218.218 0 0 0 0 .072c-.24-.592-.952-2.24-1.024-2.36-.968-1.696-3.856-4.408-5.992-3.952a2.593 2.593 0 0 0-1.976 2.329c-.027.363.022.728.144 1.071.472 1.472 2.096 2.472 3.472 2.952 1.56.544 5.12.224 5.4.192.18 2.038.498 4.061.952 6.056.248 1.16.544 2.328.856 3.488-.224-.512-.424-.96-.456-1.024-.976-1.696-3.856-4.4-6-3.944a2.587 2.587 0 0 0-1.832 3.4c.472 1.472 2.096 2.464 3.48 2.952s4.44.272 5.24.208c.128.44.24.888.368 1.328.6 2.136 1.208 4.264 1.736 6.36.192.744.344 1.48.504 2.216-.192-.448-.36-.8-.392-.888-.976-1.696-3.856-4.4-6-3.944a2.593 2.593 0 0 0-1.976 2.329c-.027.363.022.728.144 1.071.472 1.472 2.096 2.472 3.48 2.952s4.144.296 5.096.216c.144.76.288 1.52.384 2.264.064.504.152.992.184 1.504s.08 1.008.12 1.512c.048.96.096 1.952.112 2.888v1.904c-.176-.736-.552-2.176-.6-2.296-.704-1.824-3.144-4.936-5.328-4.8a2.615 2.615 0 0 0-1.849 1.022 2.622 2.622 0 0 0-.458.978 2.62 2.62 0 0 0-.021 1.08c.248 1.528 1.696 2.76 2.992 3.448 1.416.752 4.848.984 5.272 1.008v3c-.048 2.992-.192 5.52-.328 7.392l1.448.288c.096-1.92.192-4.552.184-7.672 0-1.056 0-2.176-.064-3.336a27.065 27.065 0 0 0 3.2-.8c.872 1.408 3.424 3.352 3.752 3.6-.568.872-1.128 1.712-1.664 2.496-1.68 2.44-3.2 4.448-4.328 5.936l1.6.304c1.064-1.456 2.4-3.32 3.816-5.52.584-.88 1.184-1.832 1.792-2.816.392.16 3.568 1.48 5.176 1.432 1.464-.048 3.312-.512 4.208-1.776a2.581 2.581 0 0 0 .482-2.052 2.593 2.593 0 0 0-1.202-1.732c-1.912-1.08-5.472.632-6.912 1.952-.088.08-.912 1.032-1.424 1.6.248-.408.488-.8.736-1.216.504-.8.976-1.656 1.488-2.552l.696-1.344c.248-.44.448-.944.672-1.416.504-1.112.96-2.264 1.392-3.432.728.44 3.312 1.944 4.8 2.12 1.488.176 3.352 0 4.424-1.112a2.592 2.592 0 0 0-.136-3.856c-1.72-1.36-5.504-.208-7.128.888-.096.064-1.176.976-1.76 1.488.256-.704.512-1.4.752-2.128.672-2.08 1.296-4.208 1.928-6.328.192-.648.392-1.296.592-1.936.256.152 3.288 2.008 4.92 2.208 1.456.176 3.352 0 4.424-1.112a2.592 2.592 0 0 0-.136-3.856c-1.72-1.36-5.504-.208-7.128.888-.12.08-1.672 1.4-2.048 1.752.432-1.424.88-2.84 1.384-4.216a45.562 45.562 0 0 1 2.336-5.44c.12.072 3.28 2.024 4.952 2.224 1.456.184 3.352 0 4.424-1.112a2.592 2.592 0 0 0-.136-3.856c-1.72-1.352-5.504-.2-7.128.888a38.024 38.024 0 0 0-1.84 1.6l-.096-.08a33.573 33.573 0 0 1 3.304-4.96 41.715 41.715 0 0 1 2.056-2.4c.552.416 3.096 2.328 4.584 2.68 1.488.352 3.328.36 4.52-.624a2.6 2.6 0 0 0 .999-1.862 2.592 2.592 0 0 0-.719-1.986c-1.56-1.536-5.44-.8-7.2.096-.096.056-1 .656-1.648 1.112.312-.336.632-.688.944-1a59.67 59.67 0 0 1 3.32-3.072 63.049 63.049 0 0 1 1.6-1.344c.76.128 3.824.624 5.272.264 1.448-.36 3.128-1.208 3.728-2.632a2.592 2.592 0 0 0 .075-2.145 2.607 2.607 0 0 0-1.563-1.471Z"/>
  <path fill="#333" d="M159.904 274.632H100.36v7.88h59.544v-7.88Z"/>
  <path fill="#333" d="M150.544 305.168h-40.832l-5.104-23.528h51.04l-5.104 23.528Z"/>
  <path fill="#42A5F5" stroke="#333" stroke-miterlimit="10" d="m100.864 155.4-.6 56.752s-2.4 1.208-9.056 1.208c-6.656 0-9.056-1.208-9.056-1.208l2.4-22.944s-8.44-1.808-8.44-4.208c0-2.4 18.712-68.8 18.712-68.8s9.664 16.856 6.04 39.2Z"/>
  <path stroke="#333" stroke-miterlimit="10" d="m84.56 189.2 7.824-36.16"/>
  <path fill="#333" stroke="#333" stroke-miterlimit="10" d="M87.584 116.152s10.864 14.488 12.072 20.528c1.208 6.04 1.208 18.72 1.208 18.72a99.053 99.053 0 0 0 6.64-27.768c1.208-15.096-10.864-22.944-10.864-22.944l-9.056 11.464Z"/>
  <path fill="#42A5F5" stroke="#333" stroke-miterlimit="10" d="m291.736 155.4.6 56.752s2.4 1.208 9.056 1.208c6.656 0 9.056-1.208 9.056-1.208l-2.4-22.944s8.44-1.808 8.44-4.208c0-2.4-18.72-68.8-18.72-68.8s-9.656 16.856-6.032 39.2Z"/>
  <path stroke="#333" stroke-miterlimit="10" d="m308.032 189.2-7.256-42.048"/>
  <path fill="#333" stroke="#333" stroke-miterlimit="10" d="M305.016 116.152s-10.872 14.488-12.08 20.528c-1.208 6.04-1.2 18.712-1.2 18.712a98.877 98.877 0 0 1-6.648-27.768c-1.208-15.096 10.872-22.944 10.872-22.944l9.056 11.472Z"/>
  <path fill="#42A5F5" d="M304.928 116.152a213.479 213.479 0 0 0-217.344 0L68.528 83.928c-1.368-2.288-.08-5.6 2.92-7.248a255.757 255.757 0 0 1 249.6 0c2.992 1.672 4.288 4.96 2.92 7.248l-19.04 32.224Z"/>
  <path stroke="#333" stroke-miterlimit="10" d="M304.928 116.152a213.479 213.479 0 0 0-217.344 0L68.528 83.928c-1.368-2.288-.08-5.6 2.92-7.248a255.757 255.757 0 0 1 249.6 0c2.992 1.672 4.288 4.96 2.92 7.248l-19.04 32.224Z"/>
  <path fill="#333" d="M104.282 99.961c-.583.239-1.116.293-1.598.163-.46-.14-.922-.467-1.386-.983L86.686 82.774c-.52-.593-.716-1.194-.587-1.802.15-.616.626-1.088 1.425-1.415.583-.24 1.094-.285 1.532-.137.43.126.862.441 1.295.945l12.916 14.905-1.295.531-.985-19.757c-.023-.671.07-1.213.279-1.627.209-.413.573-.726 1.091-.939.518-.212.986-.24 1.403-.083.417.157.858.493 1.321 1.01l12.955 14.814-1.134.465-1.16-19.724c-.035-.64.051-1.168.26-1.581.209-.413.594-.735 1.155-.965.691-.283 1.296-.254 1.814.089.519.342.801.907.847 1.695l1.022 21.973c.023.672-.08 1.219-.311 1.64-.23.423-.637.754-1.22.993-.583.238-1.105.288-1.565.15-.461-.14-.923-.468-1.386-.984L104.14 79.216l.745-.305.896 18.431c.022.672-.081 1.219-.312 1.64-.209.414-.604.74-1.187.98Zm35.065-12.674c-.749.178-1.374.122-1.874-.166-.483-.317-.814-.85-.992-1.6l-4.605-19.375c-.178-.75-.12-1.362.175-1.84.311-.506.841-.848 1.591-1.026l12.156-2.889c.567-.135 1.034-.09 1.399.135.388.22.647.602.776 1.147.135.567.081 1.048-.161 1.441-.225.366-.621.616-1.189.75l-10.283 2.444 1.57 6.606 9.534-2.266c.59-.14 1.068-.097 1.433.127.366.225.616.622.751 1.19.135.567.089 1.033-.135 1.398-.225.366-.633.618-1.223.759l-9.535 2.266 1.659 6.98 10.284-2.444c.567-.135 1.034-.09 1.399.135.388.22.649.614.784 1.181.135.568.079 1.037-.169 1.407-.225.365-.621.616-1.189.75l-12.156 2.89Zm25.106-5.084c-.718.087-1.298-.043-1.739-.39-.444-.37-.709-.913-.796-1.631l-2.418-20.05c-.089-.741.029-1.32.355-1.735.347-.441.879-.705 1.597-.792.718-.086 1.286.045 1.704.394.439.323.703.855.792 1.597l2.238 18.555 10.077-1.215c.625-.075 1.119.03 1.483.315.387.282.616.725.689 1.327.072.602-.044 1.098-.35 1.488-.285.363-.74.582-1.366.658l-12.266 1.479Zm33.817-1.853c-2.567 0-4.772-.513-6.615-1.54-1.82-1.05-3.22-2.52-4.2-4.41-.98-1.913-1.47-4.165-1.47-6.755 0-1.937.28-3.675.84-5.215.56-1.563 1.365-2.893 2.415-3.99 1.05-1.12 2.333-1.972 3.85-2.555 1.54-.607 3.267-.91 5.18-.91 1.283 0 2.543.163 3.78.49 1.237.327 2.322.793 3.255 1.4.49.303.817.677.98 1.12.163.42.198.84.105 1.26a1.966 1.966 0 0 1-.595 1.015c-.28.28-.642.443-1.085.49-.42.023-.887-.128-1.4-.455a7.77 7.77 0 0 0-2.345-1.015c-.84-.21-1.692-.315-2.555-.315-1.657 0-3.057.338-4.2 1.015-1.143.677-2.007 1.657-2.59 2.94-.583 1.283-.875 2.858-.875 4.725 0 1.843.292 3.418.875 4.725.583 1.307 1.447 2.298 2.59 2.975 1.143.677 2.543 1.015 4.2 1.015.887 0 1.762-.105 2.625-.315a9.477 9.477 0 0 0 2.45-1.05c.513-.303.968-.432 1.365-.385.42.023.77.163 1.05.42s.467.583.56.98c.093.373.07.77-.07 1.19-.14.397-.42.747-.84 1.05-.933.677-2.053 1.202-3.36 1.575a14.83 14.83 0 0 1-3.92.525Zm28.107 2.072c-2.358-.326-4.354-1.133-5.99-2.42-1.612-1.284-2.774-2.929-3.485-4.935-.708-2.03-.885-4.316-.533-6.859.266-1.918.782-3.601 1.548-5.05.77-1.471 1.738-2.68 2.906-3.625a10.399 10.399 0 0 1 4.06-2.017c1.54-.399 3.199-.475 4.979-.228 2.38.33 4.377 1.137 5.989 2.42 1.616 1.261 2.779 2.895 3.49 4.901.711 2.007.89 4.281.538 6.824-.266 1.918-.784 3.613-1.553 5.085-.77 1.471-1.751 2.69-2.945 3.655-1.171.968-2.526 1.652-4.065 2.05-1.513.38-3.16.446-4.939.2Zm.528-3.813c1.503.208 2.822.038 3.958-.511 1.159-.546 2.108-1.44 2.845-2.68.761-1.237 1.267-2.769 1.521-4.595.384-2.773.058-5.01-.978-6.708-1.014-1.695-2.653-2.7-4.918-3.013-1.479-.206-2.798-.035-3.958.51-1.156.524-2.114 1.404-2.875 2.64-.734 1.218-1.229 2.752-1.485 4.6-.382 2.75-.056 4.987.978 6.708 1.033 1.722 2.671 2.738 4.912 3.049Zm22.745 7.952c-.626-.187-1.053-.51-1.281-.968-.228-.458-.248-1-.061-1.626l6.038-20.15c.194-.648.52-1.086.978-1.314.465-.25 1.01-.282 1.636-.095.559.168.961.41 1.207.727.275.302.47.75.584 1.345l3.69 17.803-1.073-.322 12.872-12.84c.423-.434.82-.705 1.194-.812.38-.13.849-.111 1.408.056.626.188 1.053.51 1.281.969.234.435.255.977.061 1.626l-6.038 20.15c-.187.626-.502 1.067-.945 1.324-.42.264-.954.299-1.602.105-.626-.188-1.053-.51-1.281-.969-.228-.458-.249-1-.061-1.626l4.651-15.523.738.221-10.889 10.732c-.337.313-.655.522-.955.627-.299.105-.661.094-1.086-.033-.425-.128-.744-.32-.959-.58a2.765 2.765 0 0 1-.453-1.05l-3.25-15.003.804.24-4.661 15.557c-.187.626-.502 1.068-.945 1.325-.42.264-.954.299-1.602.105Zm34.082 11.344c-.7-.32-1.159-.748-1.376-1.283-.186-.547-.119-1.17.201-1.871l8.282-18.111c.32-.7.743-1.148 1.269-1.344.556-.208 1.185-.151 1.885.17l11.363 5.195c.531.243.871.565 1.021.967.171.412.14.872-.093 1.382-.243.53-.58.876-1.013 1.037-.402.15-.869.103-1.399-.14l-9.613-4.395-2.824 6.175 8.913 4.076c.552.252.902.58 1.052.981.15.402.103.868-.139 1.399-.243.53-.565.87-.967 1.02-.402.15-.879.099-1.431-.154l-8.912-4.075-2.984 6.525 9.613 4.396c.53.242.87.565 1.02.967.171.411.135.882-.107 1.413-.243.53-.576.866-.999 1.006-.402.149-.868.103-1.399-.14l-11.363-5.196Z"/>
</svg>
