<svg width="25" height="24" viewBox="0 0 25 24" fill="none" xmlns="http://www.w3.org/2000/svg">
<g id="&#240;&#159;&#166;&#134; icon &#34;person&#34;">
<path id="Vector" fill-rule="evenodd" clip-rule="evenodd" d="M16.75 6C16.75 7.06087 16.3286 8.07828 15.5784 8.82843C14.8283 9.57857 13.8109 10 12.75 10C11.6891 10 10.6717 9.57857 9.92157 8.82843C9.17143 8.07828 8.75 7.06087 8.75 6C8.75 4.93913 9.17143 3.92172 9.92157 3.17157C10.6717 2.42143 11.6891 2 12.75 2C13.8109 2 14.8283 2.42143 15.5784 3.17157C16.3286 3.92172 16.75 4.93913 16.75 6ZM12.75 12C14.3413 12 15.8674 11.3679 16.9926 10.2426C18.1179 9.11742 18.75 7.5913 18.75 6C18.75 4.4087 18.1179 2.88258 16.9926 1.75736C15.8674 0.632141 14.3413 0 12.75 0C11.1587 0 9.63258 0.632141 8.50736 1.75736C7.38214 2.88258 6.75 4.4087 6.75 6C6.75 7.5913 7.38214 9.11742 8.50736 10.2426C9.63258 11.3679 11.1587 12 12.75 12ZM24.75 22C24.75 24 22.75 24 22.75 24H2.75C2.75 24 0.75 24 0.75 22C0.75 20 2.75 14 12.75 14C22.75 14 24.75 20 24.75 22ZM22.75 21.992C22.748 21.5 22.442 20.02 21.086 18.664C19.782 17.36 17.328 16 12.75 16C8.17 16 5.718 17.36 4.414 18.664C3.058 20.02 2.754 21.5 2.75 21.992H22.75Z" fill="#B9B9B9"/>
</g>
</svg>
